<svg xmlns="http://www.w3.org/2000/svg" width="176" height="209" viewBox="0 0 176 209" fill="none">
  <path d="M96.5 68L96 79C98.825 82.17 103.385 83.61 109 84C115.23 82.855 120.28 80.89 124 78L123 61.5L96.5 68Z" fill="#FFA382"/>
  <path d="M96.5 68V71L106.5 68H96.5Z" fill="#FE7649"/>
  <path d="M91.5 23.5V27.175C91.4992 27.6981 91.2058 28.1768 90.7401 28.4149C90.2743 28.653 89.7145 28.6106 89.29 28.305C86.74 26.5 84 21.435 82.875 16.03C81.46 9.03 87.375 2.635 94.425 3.64C96.6211 3.96682 98.7421 4.67946 100.69 5.745C101.023 5.92577 101.415 5.96342 101.776 5.84932C102.137 5.73522 102.436 5.47917 102.605 5.14C106.425 -2.65 112.21 -0.140001 118.845 6.805C119.241 7.21502 119.849 7.34006 120.375 7.12C128.59 3.695 131.5 6.24 130.725 13C130.682 13.3749 130.793 13.7512 131.034 14.0419C131.275 14.3326 131.624 14.5125 132 14.54C140.185 15.14 138.215 21.835 133.17 30.375C132.81 30.9738 132.064 31.2167 131.42 30.945C128.635 29.84 126.63 31.66 124.875 34.395C124.636 34.7651 124.584 35.226 124.735 35.64C129.075 47.535 126.025 62.745 124.235 64.75C122.235 66.98 112.915 72.295 95.46 68.3C95.311 68.2714 95.1686 68.2154 95.04 68.135C91.34 65.915 90.19 59.81 90.485 51.5" fill="#001047"/>
  <path d="M124 33.5C124.546 32.0509 125.642 30.8758 127.05 30.23C128.556 29.5134 130.345 29.7696 131.59 30.88C132.969 32.0438 133.835 33.7033 134 35.5C134.295 38.14 132.615 39.855 130.125 41.185C129.69 41.421 129.216 41.5736 128.725 41.635C127.374 41.8638 125.994 41.4433 125 40.5" fill="#FFA385"/>
  <path d="M114.5 28.45C117.293 28.5006 119.699 30.4334 120.35 33.15C120.763 35.0732 120.981 37.0331 121 39C121.23 45.605 121.085 51.82 119.63 56.655C118.715 59.6843 115.648 61.5222 112.545 60.9C107.625 59.955 103 60.02 98.795 61.52C96.0529 62.4555 93.0297 61.3519 91.535 58.87C91.47 58.765 91.405 58.66 91.345 58.55C90.7857 57.5907 90.5036 56.4951 90.53 55.385L90.98 29.18C90.9853 28.8675 91.1148 28.5699 91.34 28.3532C91.5652 28.1364 91.8675 28.0183 92.18 28.025L114.5 28.45Z" fill="#FF9C78"/>
  <path d="M94 31.5C95.645 30.21 97.18 29.89 98.5 31.5" stroke="#A9552B" stroke-width="0.5"/>
  <path d="M108.5 32C110.215 31.195 111.805 30.85 113 32" stroke="#A9552B" stroke-width="0.5"/>
  <path d="M97 45C97.5523 45 98 44.2165 98 43.25C98 42.2835 97.5523 41.5 97 41.5C96.4477 41.5 96 42.2835 96 43.25C96 44.2165 96.4477 45 97 45Z" fill="#000F47"/>
  <path d="M110.5 45C111.052 45 111.5 44.2165 111.5 43.25C111.5 42.2835 111.052 41.5 110.5 41.5C109.948 41.5 109.5 42.2835 109.5 43.25C109.5 44.2165 109.948 45 110.5 45Z" fill="#000F47"/>
  <path d="M104.5 45C102.672 46.9397 101.455 49.3739 101 52C102.405 53.11 104.135 53.035 106 52.5" stroke="#A9552B" stroke-width="0.5"/>
  <path d="M107 55.5C108.5 55.5 112.5 55 113.5 53" stroke="#000F47" stroke-width="0.5" stroke-linecap="round" stroke-linejoin="round"/>
  <path fill-rule="evenodd" clip-rule="evenodd" d="M95.625 47.25C99.422 47.25 102.5 44.172 102.5 40.375C102.5 36.578 99.422 33.5 95.625 33.5C91.828 33.5 88.75 36.578 88.75 40.375C88.75 44.172 91.828 47.25 95.625 47.25Z" stroke="#000F47" stroke-width="0.5" stroke-linecap="round" stroke-linejoin="round"/>
  <path fill-rule="evenodd" clip-rule="evenodd" d="M111.595 47.25C115.392 47.25 118.47 44.172 118.47 40.375C118.47 36.578 115.392 33.5 111.595 33.5C107.798 33.5 104.72 36.578 104.72 40.375C104.72 44.172 107.798 47.25 111.595 47.25Z" stroke="#000F47" stroke-width="0.5" stroke-linecap="round" stroke-linejoin="round"/>
  <path d="M102.75 40.25H104.75" stroke="#000F47" stroke-width="0.5" stroke-linecap="round" stroke-linejoin="round"/>
  <path d="M118.25 40.25H121.06" stroke="#000F47" stroke-width="0.5" stroke-linejoin="round"/>
  <path d="M127.935 31.29C129.79 30.69 131.09 31.29 131.75 33.25" stroke="#A9552B" stroke-width="0.5"/>
  <path d="M175.6 136.73C175.69 140.46 168.1 143.51 164.375 143.32C162.035 143.206 159.718 142.806 157.475 142.13C155.392 141.52 153.141 142.003 151.493 143.416C149.844 144.828 149.021 146.978 149.305 149.13L155.83 200.245C156.063 202.07 155.504 203.908 154.294 205.294C153.085 206.681 151.34 207.483 149.5 207.5L62.25 207.93C60.4471 207.947 58.7199 207.206 57.489 205.889C56.258 204.571 55.6363 202.798 55.775 201L61.5 124.585C61.6499 122.614 60.8847 120.683 59.425 119.35L46.77 107.78C45.1507 106.306 44.3964 104.107 44.77 101.95C46.21 93.83 49.245 86.32 57.455 80.79C58.253 80.2511 59.1622 79.899 60.115 79.76C71.55 78.07 82.715 76.685 93.475 75.76L94.235 75.695C104.425 84.8 115.405 82.695 126.805 74.505H127.475C135.671 74.6662 143.845 75.4098 151.935 76.73C152.845 76.8843 153.71 77.2358 154.47 77.76C161.22 82.375 170.795 89.905 174.4 99.99C174.629 100.633 174.752 101.308 174.765 101.99L175.6 136.73Z" fill="#76E699"/>
  <path d="M127.5 74V74.5L124.5 189L91.5 187.5L93.5 75.75V75C93.75 75.235 94 75.465 94.245 75.685C104.435 84.79 115.415 82.685 126.815 74.495L127.5 74Z" fill="#F6FCFF"/>
  <path d="M93.5 75C100.815 81.6 110.46 84.5 128 75" stroke="#1D3332" stroke-width="2.5"/>
  <path d="M109 96.5C110.105 96.5 111 95.6046 111 94.5C111 93.3954 110.105 92.5 109 92.5C107.895 92.5 107 93.3954 107 94.5C107 95.6046 107.895 96.5 109 96.5Z" fill="#1D3332"/>
  <path d="M150.01 152.185L150.79 160L136.46 143.845L150.01 152.185Z" fill="#428055"/>
  <path d="M109 104C110.105 104 111 103.105 111 102C111 100.895 110.105 100 109 100C107.895 100 107 100.895 107 102C107 103.105 107.895 104 109 104Z" fill="#1D3332"/>
  <path d="M175.5 132C154.25 125.93 124.275 116.25 119.5 117C116.17 112.03 112.22 110.53 108 110.5C106.315 112.585 107.355 113.94 109.5 115C104.575 116.235 98.72 127.07 98.37 128.425C97.53 131.425 97.93 134.425 99.5 137.5C100.86 134.12 103 131.705 106.5 131C109.895 134.285 113.825 134.6 118 133.5L120 130.5C137.675 145.945 156.145 157.89 175.5 166" fill="#FFA483"/>
  <path d="M114.5 115C105.955 115.225 101.345 120.04 99 127.5" stroke="#000111" stroke-width="0.5"/>
  <path d="M106.5 131.5C105.5 127.83 105.595 124.71 108.5 123" stroke="#000111" stroke-width="0.5"/>
  <path opacity="0.3" d="M91 208H99.5L93 76L91 208Z" fill="#1F2E3D"/>
  <path d="M110.25 132.75C108.95 130.025 109.075 127.5 111.25 125.25" stroke="#000111" stroke-width="0.5"/>
  <path d="M119.25 131.75C119.25 131.75 117.25 130.75 116.25 130.75C115.522 130.557 114.841 130.217 114.25 129.75" stroke="#000111" stroke-width="0.5"/>
  <path d="M114.25 131.75L116.25 130.75" stroke="#000111" stroke-width="0.5"/>
  <path d="M166.095 129.145L138.35 120.99" stroke="#000111" stroke-width="0.5"/>
  <path opacity="0.1" d="M46.5 77.5H99L112.5 110.5L60 113" fill="#022AB7"/>
  <path opacity="0.1" d="M5 94.5H82.5L103.5 145L22 147" fill="#022AB7"/>
  <path d="M131 151V157.5H98.5V151" fill="#8492AC"/>
  <path d="M98.5 151V157.5H13.5V151" fill="#E1E5ED"/>
  <path d="M0 100.5L78.5 101L98.5 151H18" fill="#F4F3F2"/>
  <path d="M31.11 100.65L10 128.5L0 100.5" fill="#BFCAD4"/>
  <path d="M14.92 159.235C14.73 159.19 14.55 159.135 14.375 159.08C11.9208 158.224 10.4334 155.731 10.845 153.165L11 132L16.205 141.7C16.2814 142.035 16.4911 142.324 16.7856 142.5C17.0801 142.677 17.4338 142.725 17.765 142.635C25.56 140.5 32.045 140.575 36 145C35.675 146.18 34.825 146.835 33.5 147C34.84 147.745 35.565 149 36 150.5C35.055 151.86 33.64 152.185 32 152C33.46 152.765 34.725 153.705 35 155.5C34.795 156.34 33.705 156.705 32.5 157H65.35C65.6972 157.001 66.0175 157.187 66.1899 157.488C66.3622 157.79 66.3604 158.16 66.185 158.46C61.495 166.155 52.73 169.96 41.845 171.79C40.9548 171.943 40.0452 171.943 39.155 171.79C30.8 170.315 23.31 167.265 17.655 160.88C16.9321 160.066 15.9779 159.492 14.92 159.235Z" fill="#FFA583"/>
  <path d="M25.5 151.5C25.5 151.5 30.945 150.96 32.72 152.5" stroke="#000111" stroke-width="0.5"/>
  <path d="M26.5 146C26.5 146 31 145.5 33.5 147" stroke="#000111" stroke-width="0.5"/>
  <path d="M10.5 155.5C13.18 159.16 16.815 160.245 21.5 158.5" stroke="#000111" stroke-width="0.5"/>
  <path d="M36.09 157H66.185C66.4295 157.008 66.649 157.152 66.7541 157.373C66.8593 157.594 66.8327 157.855 66.685 158.05L64.005 161.595C63.8856 161.753 63.7026 161.85 63.505 161.86C54.03 161.99 44.87 160.36 35.945 158.295C35.6169 158.224 35.396 157.916 35.4333 157.582C35.4707 157.248 35.7543 156.997 36.09 157Z" fill="#E8957C"/>
  <path d="M94.75 156C95.4404 156 96 155.44 96 154.75C96 154.06 95.4404 153.5 94.75 153.5C94.0596 153.5 93.5 154.06 93.5 154.75C93.5 155.44 94.0596 156 94.75 156Z" fill="#022AB7"/>
  <rect x="105.5" y="153.5" width="5" height="2.5" rx="1.01" fill="#022AB7"/>
  <rect x="114" y="153.5" width="5" height="2.5" rx="1.01" fill="#022AB7"/>
  <path d="M91 188L91.515 207.5L123.455 209L125 188.5" fill="#1F2E3D"/>
</svg>